<?xml version="1.0" encoding="UTF-8" standalone="no"?>
<!-- Created with Inkscape (http://www.inkscape.org/) -->

<svg
   xmlns:dc="http://purl.org/dc/elements/1.1/"
   xmlns:cc="http://creativecommons.org/ns#"
   xmlns:rdf="http://www.w3.org/1999/02/22-rdf-syntax-ns#"
   xmlns:svg="http://www.w3.org/2000/svg"
   xmlns="http://www.w3.org/2000/svg"
   xmlns:sodipodi="http://sodipodi.sourceforge.net/DTD/sodipodi-0.dtd"
   xmlns:inkscape="http://www.inkscape.org/namespaces/inkscape"
   width="82.020828mm"
   height="26.458334mm"
   viewBox="0 0 82.020828 26.458334"
   version="1.1"
   id="svg8"
   inkscape:version="0.92.4 (5da689c313, 2019-01-14)"
   sodipodi:docname="logo-invertido.svg">
  <defs
     id="defs2" />
  <sodipodi:namedview
     id="base"
     pagecolor="#ffffff"
     bordercolor="#666666"
     borderopacity="1.0"
     inkscape:pageopacity="0.0"
     inkscape:pageshadow="2"
     inkscape:zoom="1"
     inkscape:cx="147.19917"
     inkscape:cy="66.592692"
     inkscape:document-units="mm"
     inkscape:current-layer="g846"
     showgrid="false"
     showguides="false"
     inkscape:window-width="1440"
     inkscape:window-height="837"
     inkscape:window-x="-8"
     inkscape:window-y="-8"
     inkscape:window-maximized="1" />
  <metadata
     id="metadata5">
    <rdf:RDF>
      <cc:Work
         rdf:about="">
        <dc:format>image/svg+xml</dc:format>
        <dc:type
           rdf:resource="http://purl.org/dc/dcmitype/StillImage" />
        <dc:title />
      </cc:Work>
    </rdf:RDF>
  </metadata>
  <g
     inkscape:label="Capa 1"
     inkscape:groupmode="layer"
     id="layer1"
     transform="translate(-35.707916,-148.42704)">
    <g
       id="g846"
       transform="matrix(1.3882008,0,0,1.3793916,-29.471873,-61.31454)">
      <path
         transform="scale(0.26458333)"
         sodipodi:nodetypes="ccscccsscccsccccc"
         inkscape:connector-curvature="0"
         id="path1288"
         d="m 209.22816,646.15849 c -1.07261,-1.29642 -2.14038,-2.65323 -3.15785,-4.11747 -1.23673,-1.77981 -2.39841,-3.71744 -3.40625,-5.89258 -1.00784,-2.17514 -1.86148,-4.5875 -2.47851,-7.32032 -0.61704,-2.73281 -0.99817,-5.78544 -1.0625,-9.23828 -0.0284,-1.52564 0.0814,-2.9679 0.30078,-4.32617 0.21941,-1.35826 0.54852,-2.63237 0.95703,-3.82422 0.40851,-1.19185 0.89668,-2.30172 1.43555,-3.32812 0.53887,-1.0264 1.12778,-1.97011 1.73828,-2.83203 1.22098,-1.72385 2.52659,-3.11968 3.68164,-4.19141 1.15504,-1.07173 2.22594,-1.76574 2.82955,-2.20563 -0.64031,-0.57181 -1.08664,-0.94528 -1.80553,-1.87903 -0.4805,-0.62411 -0.89803,-1.13373 -1.47308,-2.1891 -0.4057,-0.74456 -0.64196,-1.6281 -0.64196,-1.6281 -8.52021,6.20297 -12.93331,14.4437 -12.94571,24.75612 5.8e-4,7.01047 2.25795,13.5559 6.03855,19.08875 2.66242,3.95025 7.90253,8.00865 9.99001,9.12759 z"
         style="opacity:1;fill:#ffffff;fill-opacity:1;stroke:none;stroke-width:0.29499501;stroke-linecap:round;stroke-miterlimit:4;stroke-dasharray:none" />
      <path
         style="opacity:1;fill:#ffffff;stroke-width:0.77460378;stroke-linecap:round;stroke-miterlimit:4;stroke-dasharray:none"
         d="m 39.783203,11.009766 c -1.739984,0.476875 -3.968967,1.733878 -4.210937,1.875 -2.596477,1.495081 -5.569324,3.582554 -8.580078,6.154296 -1.505372,1.285879 -2.950036,2.759996 -4.398438,4.306641 -1.448402,1.546646 -2.758723,3.309337 -4.041016,5.113281 -1.282306,1.803958 -2.343762,3.841408 -3.349609,5.900391 -1.005861,2.058969 -1.727083,4.367509 -2.345703,6.679687 -0.61862,2.312187 -0.943772,4.671274 -1.240234,6.832032 -0.296458,2.160758 -0.338146,4.34804 -0.365235,6.341797 -0.05356,3.987532 0.535013,7.783227 1.234375,11.001953 0.699377,3.218712 1.760271,6.112132 2.775391,8.421875 1.015134,2.309729 2.126374,4.178843 3.017578,5.4375 0.891218,1.258657 2.038291,2.763286 3.486328,4.380859 1.448037,1.617573 3.247579,3.397485 5.447266,5.222656 2.199686,1.825186 4.83432,3.72596 7.980468,5.607422 0.725525,0.432553 6.467139,3.752985 6.467139,3.752985 -1.714662,-1.209708 -6.005961,-4.268967 -7.51945,-5.673404 -1.51349,-1.404437 -2.922971,-2.898987 -4.220704,-4.474609 -1.297732,-1.575622 -2.485343,-3.231815 -3.552734,-4.955078 -1.067391,-1.723264 -2.015426,-3.513969 -2.83789,-5.361329 -0.822465,-1.84736 -1.51908,-3.751305 -2.082032,-5.699218 -0.562952,-1.947913 -0.992395,-3.939922 -1.28125,-5.964844 -0.288855,-2.024922 -0.437327,-4.083723 -0.4375,-6.162109 0.0022,-1.778106 0.111435,-3.541757 0.324219,-5.285157 0.212784,-1.743399 0.52935,-3.464899 0.945313,-5.158203 0.415962,-1.693304 0.931283,-3.35851 1.542968,-4.986328 0.611686,-1.627818 1.321141,-3.218682 2.121094,-4.765625 0.799953,-1.546943 1.69111,-3.049323 2.671875,-4.5 0.980765,-1.450677 2.050956,-2.850432 3.205078,-4.189453 1.154122,-1.339021 2.392867,-2.618103 3.712891,-3.830078 1.320024,-1.211975 3.206883,-2.665603 4.685353,-3.735142 -0.44453,-1.885493 -0.630286,-3.436349 -0.640808,-5.08468 9.26e-4,-2.426477 0.626346,-5.019475 1.486328,-7.203125 z m -5.412109,7.441406 c -0.199141,0.668666 -0.360721,1.488998 -0.523438,2.246094 0.599039,0.58449 1.143441,1.190947 1.865235,1.724609 -0.730116,-0.01754 -1.488415,-0.17266 -2.21875,-0.208984 -0.155053,0.731023 -0.301241,1.414059 -0.492188,2.117187 -0.511211,-0.73654 -0.996979,-1.497876 -1.443359,-2.298828 -0.814909,-0.08752 -1.597437,-0.0418 -2.441406,-0.228516 -0.330884,-0.0078 0.507737,-0.609607 1.666015,-1.328125 0.03345,-0.02075 0.06955,-0.03766 0.103516,-0.05859 -0.239486,-0.598555 -0.526658,-1.149581 -0.669922,-1.84375 0.750608,0.199688 1.359309,0.457762 1.876953,0.753906 0.122379,0.07001 0.201503,0.158505 0.314453,0.232422 0.697348,-0.396786 1.442633,-0.849615 1.962891,-1.107422 z m -7.941406,7.146484 0.02734,1.65625 c 0.643992,0.298505 1.262505,0.551986 2.128907,1.253906 -0.932307,0.238821 -1.464761,0.23808 -2.101563,0.300782 l 0.0293,1.757812 c -0.520039,-0.465357 -0.969218,-1.019379 -1.414063,-1.578125 -0.803062,-0.0025 -1.491418,-0.07237 -2.341797,-0.04687 -0.0013,-0.07477 0.64973,-0.799472 1.314454,-1.488281 -0.287116,-0.486369 -0.599762,-0.939595 -0.839844,-1.484375 0.670152,0.281277 1.256873,0.438272 1.863281,0.630859 0.503379,-0.430062 1.083689,-1.001953 1.333985,-1.001953 z m -5.060547,7.921875 0.279297,1.566407 c 0.655048,0.18605 1.278421,0.334798 2.205078,0.86914 -0.846708,0.366346 -1.349681,0.446427 -1.94336,0.601563 l 0.294922,1.660156 c -0.56396,-0.363074 -1.075195,-0.820219 -1.582031,-1.283203 -0.760367,0.117977 -1.423477,0.155212 -2.224609,0.30664 -0.01258,-0.07075 0.492638,-0.855005 1.017578,-1.607422 -0.345711,-0.417368 -0.711386,-0.799629 -1.021485,-1.279296 0.67832,0.166102 1.258899,0.224967 1.863281,0.316406 0.411262,-0.482711 0.8743,-1.112805 1.111329,-1.150391 z m -4.28125,8.429688 0.65625,1.208984 c 0.587646,-0.02411 1.139562,-0.07283 2.044921,0.115235 -0.594569,0.529177 -0.985111,0.732171 -1.429687,1.019531 l 0.695313,1.279297 c -0.561143,-0.145329 -1.102909,-0.382352 -1.644532,-0.625 -0.591409,0.302055 -1.124619,0.511217 -1.740234,0.851562 -0.02966,-0.05451 0.169402,-0.834505 0.394531,-1.59375 -0.396813,-0.248621 -0.800874,-0.462378 -1.185547,-0.771484 0.600897,-0.04689 1.091397,-0.154192 1.611328,-0.242188 0.205292,-0.506859 0.413584,-1.147423 0.597657,-1.242187 z m -1.580079,8.285156 0.498047,1.304687 c 0.52857,-4.44e-4 1.026454,-0.02687 1.824219,0.210938 -0.572014,0.533858 -0.937772,0.730848 -1.357422,1.015625 L 17,54.146484 c -0.490908,-0.177057 -0.957714,-0.451292 -1.423828,-0.730468 -0.553564,0.295002 -1.047028,0.492021 -1.625,0.826172 -0.02285,-0.05879 0.214194,-0.874715 0.472656,-1.667969 -0.337332,-0.279685 -0.683519,-0.523065 -1.005859,-0.865235 0.541095,-0.0241 0.989293,-0.116701 1.460937,-0.1875 0.221767,-0.527023 0.456892,-1.194742 0.628906,-1.287109 z m -0.457031,9.384766 0.669922,0.960937 c 0.495447,-0.07593 0.959073,-0.167682 1.744141,-0.09375 -0.452317,0.503375 -0.764677,0.711108 -1.113282,0.996094 l 0.09222,0.931143 c -0.441475,-0.06354 -0.244602,-0.271501 -0.68011,-0.403799 -0.02261,0.01556 -0.05769,0.05521 -0.08008,0.07031 -0.502136,0.338705 -0.951884,0.566934 -1.466797,0.931641 -0.03338,-0.04703 0.06155,-0.77322 0.201172,-1.511719 -0.362216,-0.173847 -0.737824,-0.18992 -1.095703,-0.416016 0.504279,-0.09637 0.909977,-0.233936 1.341796,-0.357422 0.125446,-0.448099 0.240003,-1.009897 0.386719,-1.107421 z m 1.283203,8.314453 0.182064,0.587393 c 0.409358,-0.179213 0.786574,-0.365984 1.480468,-0.482422 -0.273265,0.538449 -0.49399,0.789374 -0.728515,1.115235 l 1.468327,0.803231 c -0.395671,0.04658 -0.827844,-0.112773 -1.234375,-0.126953 -0.01558,0.01826 -0.03528,0.06029 -0.05078,0.07813 -0.354016,0.407105 -0.687896,0.70817 -1.046875,1.140625 -0.03972,-0.03291 -0.128404,-0.680894 -0.179688,-1.349609 -0.352125,-0.06669 -0.67855,0.0052 -1.039062,-0.107422 0.411787,-0.198387 0.729242,-0.407977 1.072265,-0.613281 0.0038,-0.415992 -0.0278,-0.927013 0.07617,-1.044922 z m 4.351563,7.015625 c -0.05686,0.638959 -0.214692,0.78376 -0.322266,1.173828 l 1.054688,0.351562 c -0.365567,0.197028 -0.841885,0.216389 -1.246094,0.351563 -0.142511,0.374697 -0.242553,0.957349 -0.376953,1.373047 -0.0415,-0.01341 -0.233726,-0.63706 -0.484375,-1.132813 -0.367069,0.07695 -0.661296,0.270285 -1.058594,0.298828 0.310788,-0.337925 0.522314,-0.651445 0.771485,-0.970703 -0.143083,-0.364164 -0.406694,-0.699744 -0.357422,-0.83789 l 0.916015,0.30664 c 0.289096,-0.292177 0.549135,-0.57923 1.103516,-0.914062 z"
         id="path1333"
         transform="matrix(0.19059443,0,0,0.19181162,46.95271,152.05369)"
         inkscape:connector-curvature="0"
         sodipodi:nodetypes="cccsccscccccscccsssssscssssssscccccccccccccccccccccccccccccccccccccccccccccccccccccccccccccccccccccccccccccccccccccccccccccccccccc" />
      <path
         id="path1145-7"
         d="m 55.729725,152.03691 c -0.346768,0.0432 -0.90446,0.17581 -1.799892,0.48007 -2.578457,0.87616 -5.593537,2.79288 -6.56704,6.19756 -0.923293,3.22908 -0.525166,5.80852 1.34824,8.23309 1.270339,1.64408 3.776128,2.9818 5.355368,3.67813 l -1.035829,-0.61671 c -0.582227,-0.35255 -0.996195,-0.72693 -1.395181,-1.06779 -0.398986,-0.34087 -0.723105,-0.67158 -0.991756,-0.97891 -0.268649,-0.30732 -0.481051,-0.59079 -0.652678,-0.834 -0.171625,-0.2432 -0.377089,-0.59695 -0.573792,-1.0497 -0.1967,-0.45276 -0.377387,-1.04309 -0.518622,-1.66847 -0.141232,-0.62538 -0.233124,-1.33321 -0.235127,-2.11047 -0.0011,-0.38862 0.02045,-0.79476 0.06976,-1.21646 0.04931,-0.4217 0.126203,-0.85901 0.236161,-1.31051 0.109959,-0.4515 0.26261,-0.87876 0.447003,-1.28106 0.184391,-0.4023 0.4005,-0.77948 0.63872,-1.13172 0.238218,-0.35223 0.498542,-0.6795 0.769978,-0.98081 0.271436,-0.30132 0.554148,-0.57678 0.838192,-0.82631 0.568092,-0.49907 1.140685,-0.89352 1.635559,-1.18029 0.53272,-0.27974 1.356119,-0.63085 1.356119,-0.63085 0.354978,-0.68989 0.894339,-1.27844 1.608643,-1.6495 -0.0512,-0.0524 -0.18705,-0.0985 -0.533818,-0.0553 z"
         style="opacity:1;fill:#ffffff;stroke-width:0.14810584;stroke-linecap:round;stroke-miterlimit:4;stroke-dasharray:none"
         inkscape:connector-curvature="0"
         sodipodi:nodetypes="ccsccccsccccssccscccccc" />
      <path
         sodipodi:nodetypes="cccccccccccccccccccccccccccccccccccccccccc"
         inkscape:connector-curvature="0"
         id="path826"
         d="m 66.002427,159.78766 c -3.179758,2e-5 -5.764856,2.5801 -5.769158,5.75986 l 0.0057,5.68544 h 2.095997 l -5.29e-4,-5.75056 c -5.29e-4,-0.0605 0.0056,-0.1814 0.01757,-0.30179 0.01233,-0.1228 0.03078,-0.24491 0.0553,-0.36586 0.02447,-0.12117 0.05501,-0.24104 0.09147,-0.35916 0.03655,-0.11797 0.07898,-0.23404 0.127124,-0.34778 0.04798,-0.11371 0.101624,-0.22496 0.160713,-0.33331 0.05929,-0.10842 0.123966,-0.2138 0.193787,-0.31574 0.0698,-0.10187 0.144655,-0.20017 0.224276,-0.29456 0.07948,-0.0946 0.163648,-0.18513 0.25218,-0.2713 0.08855,-0.0859 0.181343,-0.16729 0.278019,-0.24391 0.09677,-0.0768 0.197321,-0.14874 0.301273,-0.21549 0.103997,-0.0668 0.211275,-0.1284 0.321429,-0.18449 0.110069,-0.0559 0.222864,-0.10626 0.337963,-0.1509 0.115112,-0.0448 0.232394,-0.0837 0.351401,-0.11678 0.118978,-0.0331 0.239535,-0.0601 0.361217,-0.0811 0.121647,-0.0211 0.244274,-0.0361 0.367419,-0.045 0.0872,-0.006 0.174585,-0.009 0.262001,-0.009 0.123568,3e-5 0.247057,0.006 0.370004,0.0186 0.122801,0.0123 0.244909,0.0308 0.365868,0.0553 0.121177,0.0247 0.241044,0.0554 0.359151,0.092 0.117965,0.0364 0.234037,0.0786 0.347782,0.12661 0.113723,0.0481 0.224967,0.10196 0.333314,0.16123 0.108402,0.0591 0.213783,0.12362 0.315743,0.19327 0.101862,0.0698 0.20017,0.14465 0.294555,0.22427 0.09441,0.0795 0.18478,0.16367 0.270785,0.25219 0.08607,0.0887 0.167651,0.18167 0.24443,0.27853 0.07681,0.0968 0.148731,0.19732 0.21549,0.30127 0.06681,0.10383 0.128376,0.21094 0.184484,0.32091 0.0559,0.11007 0.106262,0.22287 0.150897,0.33797 0.04476,0.11511 0.08374,0.23239 0.116787,0.3514 0.03305,0.11898 0.06013,0.23953 0.08113,0.36122 0.02096,0.12183 0.03578,0.24462 0.04444,0.36793 0.0062,0.0872 0.0093,0.17459 0.0093,0.262 l 5.29e-4,5.68234 h 2.020033 c -0.0155,0.0241 0.0031,-5.68234 0.0031,-5.68234 -2.7e-5,-3.18278 -2.580174,-5.76293 -5.762956,-5.76295 z"
         style="opacity:1;fill:#ffffff;fill-opacity:1;stroke-width:0.13914825;stroke-linecap:round;stroke-miterlimit:4;stroke-dasharray:none" />
      <path
         transform="scale(0.26458333)"
         id="path1179"
         d="m 215.73047,601.92578 v 45.25391 h 7.95508 v -45.29297 a 14.577349,14.577349 0 0 1 -0.16211,0.0547 14.577349,14.577349 0 0 1 -1.41992,0.31836 14.577349,14.577349 0 0 1 -1.44727,0.17578 14.577349,14.577349 0 0 1 -1.03125,0.0371 14.577349,14.577349 0 0 1 -1.45508,-0.0742 14.577349,14.577349 0 0 1 -1.4414,-0.2168 14.577349,14.577349 0 0 1 -0.99805,-0.25586 z"
         style="opacity:1;fill:#ffffff;fill-opacity:1;stroke-width:0.50418419;stroke-linecap:round;stroke-miterlimit:4;stroke-dasharray:none"
         inkscape:connector-curvature="0" />
      <path
         transform="scale(0.26458333)"
         id="path826-1"
         d="m 296.48047,603.61719 a 21.781415,21.781415 0 0 0 -21.7832,21.78125 21.781415,21.781415 0 0 0 21.7832,21.78125 21.781415,21.781415 0 0 0 15.47656,-6.4668 l -5.43555,-5.43555 a 14.000546,14.000546 0 0 1 -0.15429,0.16407 14.000546,14.000546 0 0 1 -1.05078,0.92382 14.000546,14.000546 0 0 1 -1.13868,0.81446 14.000546,14.000546 0 0 1 -1.21289,0.69531 14.000546,14.000546 0 0 1 -1.27734,0.57227 14.000546,14.000546 0 0 1 -1.32812,0.4414 14.000546,14.000546 0 0 1 -1.36524,0.30664 14.000546,14.000546 0 0 1 -1.39062,0.16797 14.000546,14.000546 0 0 1 -0.99024,0.0332 14.000546,14.000546 0 0 1 -1.39648,-0.0703 14.000546,14.000546 0 0 1 -1.38477,-0.20898 14.000546,14.000546 0 0 1 -1.35547,-0.34571 14.000546,14.000546 0 0 1 -1.31445,-0.48046 14.000546,14.000546 0 0 1 -1.26172,-0.60938 14.000546,14.000546 0 0 1 -1.19141,-0.73047 14.000546,14.000546 0 0 1 -1.11523,-0.84765 14.000546,14.000546 0 0 1 -1.02344,-0.95313 14.000546,14.000546 0 0 1 -0.92383,-1.05078 14.000546,14.000546 0 0 1 -0.81445,-1.13867 14.000546,14.000546 0 0 1 -0.69531,-1.21485 14.000546,14.000546 0 0 1 -0.57227,-1.27734 14.000546,14.000546 0 0 1 -0.4414,-1.32813 14.000546,14.000546 0 0 1 -0.30664,-1.36523 14.000546,14.000546 0 0 1 -0.16797,-1.38867 14.000546,14.000546 0 0 1 -0.0352,-0.99024 14.000546,14.000546 0 0 1 0.0703,-1.39843 14.000546,14.000546 0 0 1 0.20899,-1.38282 14.000546,14.000546 0 0 1 0.3457,-1.35742 14.000546,14.000546 0 0 1 0.48047,-1.31445 14.000546,14.000546 0 0 1 0.60742,-1.25977 14.000546,14.000546 0 0 1 0.73242,-1.19336 14.000546,14.000546 0 0 1 0.84766,-1.11328 14.000546,14.000546 0 0 1 0.95313,-1.02539 14.000546,14.000546 0 0 1 1.05078,-0.92187 14.000546,14.000546 0 0 1 1.13867,-0.81446 14.000546,14.000546 0 0 1 1.21484,-0.69726 14.000546,14.000546 0 0 1 1.27735,-0.57031 14.000546,14.000546 0 0 1 1.32812,-0.44141 14.000546,14.000546 0 0 1 1.36524,-0.30664 14.000546,14.000546 0 0 1 1.38867,-0.16992 14.000546,14.000546 0 0 1 0.99023,-0.0332 14.000546,14.000546 0 0 1 1.39844,0.0703 14.000546,14.000546 0 0 1 1.38281,0.20898 14.000546,14.000546 0 0 1 1.35742,0.34766 14.000546,14.000546 0 0 1 1.31446,0.47851 14.000546,14.000546 0 0 1 1.25976,0.60938 14.000546,14.000546 0 0 1 1.19336,0.73047 14.000546,14.000546 0 0 1 1.11328,0.84765 14.000546,14.000546 0 0 1 1.02344,0.95313 14.000546,14.000546 0 0 1 0.92383,1.05273 14.000546,14.000546 0 0 1 0.81445,1.13867 14.000546,14.000546 0 0 1 0.42969,0.75 l 5.56836,-5.56836 a 21.781415,21.781415 0 0 0 -17.91211,-9.39843 z"
         style="opacity:1;fill:#ffffff;fill-opacity:1;stroke-width:0.52591467;stroke-linecap:round;stroke-miterlimit:4;stroke-dasharray:none"
         inkscape:connector-curvature="0" />
      <path
         sodipodi:nodetypes="ccccccccccccccccccccccccccccsccccccccccccccccccccccccccccccc"
         inkscape:connector-curvature="0"
         transform="scale(0.26458333)"
         id="path826-8"
         d="m 336.30273,603.61719 c -12.03018,-9.9e-4 -21.78311,9.75107 -21.7832,21.78125 9e-5,12.03018 9.75302,21.78224 21.7832,21.78125 5.90769,-0.007 11.55905,-2.41383 15.65821,-6.66797 l -5.4336,-5.4336 c -0.11048,0.12308 -0.22312,0.2442 -0.33789,0.36329 -0.33464,0.32526 -0.68534,0.63358 -1.05078,0.92382 -0.36574,0.29031 -0.74577,0.56213 -1.13867,0.81446 -0.39247,0.25182 -0.79727,0.48388 -1.21289,0.69531 -0.41597,0.21193 -0.84229,0.40293 -1.27734,0.57227 -0.43507,0.16918 -0.87834,0.3165 -1.32813,0.4414 -0.44968,0.1249 -0.90533,0.22725 -1.36523,0.30664 -0.46045,0.0792 -0.92457,0.13522 -1.39063,0.16797 -0.32958,0.0227 -0.65987,0.0338 -0.99023,0.0332 -0.46638,-1.6e-4 -0.93245,-0.0236 -1.39649,-0.0703 -0.46478,-0.0465 -0.92695,-0.11626 -1.38476,-0.20898 -0.4573,-0.0926 -0.90969,-0.20796 -1.35547,-0.34571 -0.44589,-0.13814 -0.88458,-0.29849 -1.31445,-0.48046 -0.43048,-0.18194 -0.85158,-0.38532 -1.26172,-0.60938 -0.40905,-0.22351 -0.80668,-0.4673 -1.19141,-0.73047 -0.38565,-0.26376 -0.75786,-0.54667 -1.11523,-0.84765 -0.35681,-0.30046 -0.69838,-0.61857 -1.02344,-0.95313 -0.32526,-0.33464 -0.63359,-0.68534 -0.92383,-1.05078 -0.2903,-0.36574 -0.56213,-0.74577 -0.81445,-1.13867 -0.25188,-0.3931 -0.48395,-0.79856 -0.69532,-1.21485 -0.21193,-0.41597 -0.40292,-0.84229 -0.57226,-1.27734 -0.11917,-0.31889 -0.22666,-0.64202 -0.32227,-0.96875 11.41991,0 22.83982,0 34.25973,0 0.16573,-5.11813 -0.38161,-9.40491 -1.97617,-12.92325 -3.96825,-8.75577 -12.23258,-12.75245 -19.04528,-12.95956 z m 0.0444,7.02799 c 0.46702,10e-5 0.93433,0.0285 1.40013,0.0847 0.46525,0.0562 0.92845,0.14009 1.38776,0.25101 0.46015,0.1115 0.91582,0.24984 1.36521,0.4138 0.44884,0.16296 0.8909,0.35121 1.32439,0.56303 0.43341,0.21251 0.85767,0.44832 1.27107,0.70544 0.41361,0.25657 0.81587,0.53413 1.20514,0.83055 0.38889,0.29701 0.76428,0.61247 1.12464,0.94428 0.36044,0.33132 0.70544,0.67857 1.03363,1.03968 0.32843,0.36186 0.63958,0.73715 0.9322,1.12399 0.29275,0.38647 0.56663,0.78399 0.8206,1.19085 0.25413,0.40639 0.48807,0.82161 0.70093,1.24414 0.21208,0.42287 0.40282,0.85249 0.57152,1.28751 0.15405,0.40046 0.2896,0.80779 0.40624,1.2207 h -26.90234 c 0.1266,-0.55499 0.37207,-1.12877 0.55267,-1.60242 0.18113,-0.43174 0.38323,-0.85756 0.60551,-1.27603 0.22302,-0.4187 0.466,-0.82951 0.72801,-1.23084 0.26193,-0.401 0.54255,-0.79203 0.84083,-1.17132 0.29776,-0.38003 0.61284,-0.74786 0.94416,-1.10155 0.3314,-0.35258 0.67853,-0.69059 1.04018,-1.01195 0.362,-0.32211 0.73813,-0.62711 1.12709,-0.91289 0.38912,-0.28599 0.79062,-0.55238 1.20311,-0.79703 0.41218,-0.24388 0.83477,-0.46577 1.26635,-0.66374 0.43163,-0.19847 0.87173,-0.37274 1.31874,-0.5212 0.44691,-0.14845 0.9002,-0.27091 1.35823,-0.36615 0.45791,-0.0956 0.92002,-0.16389 1.38465,-0.20415 0.32901,-0.0276 0.65901,-0.0411 0.98938,-0.0405 z"
         style="opacity:1;fill:#ffffff;fill-opacity:1;stroke-width:0.52591467;stroke-linecap:round;stroke-miterlimit:4;stroke-dasharray:none" />
      <path
         id="path1145"
         d="m 60.258855,155.54715 a 2.1497397,2.1497397 0 0 1 -2.149739,2.14974 2.1497397,2.1497397 0 0 1 -2.14974,-2.14974 2.1497397,2.1497397 0 0 1 2.14974,-2.14974 2.1497397,2.1497397 0 0 1 2.149739,2.14974 z"
         style="opacity:1;fill:#ffffff;fill-opacity:1;stroke-width:0.08255;stroke-linecap:round;stroke-miterlimit:4;stroke-dasharray:none"
         inkscape:connector-curvature="0" />
      <path
         sodipodi:nodetypes="cszzscccccsccccccccccsszzscccscccssccscccsc"
         inkscape:connector-curvature="0"
         id="path1487"
         d="m 100.49671,159.80275 c -2.717109,0 -4.984083,0.87501 -5.025019,3.28611 -0.0117,0.68887 0.219553,1.58754 0.986382,2.30562 0.766826,0.71808 1.860333,0.85805 2.307423,0.9036 0.447093,0.0456 1.263284,0.1115 1.825774,0.11771 0.48173,0.005 0.93777,0.0139 1.35083,0.0496 0.41305,0.0357 0.78309,0.0932 1.09295,0.18087 0.30987,0.0877 0.55956,0.20563 0.73174,0.36173 0.0861,0.078 0.15272,0.16584 0.19792,0.26407 0.0452,0.0982 0.0687,0.20667 0.0687,0.32711 0,0.24088 -0.0542,0.46165 -0.1757,0.65784 -0.12153,0.19619 -0.31025,0.36803 -0.57877,0.51056 -0.26853,0.14253 -0.61686,0.25601 -1.05782,0.3359 -0.44096,0.0799 -0.97448,0.12609 -1.61334,0.13436 -0.638854,0.008 -1.177291,-0.0311 -1.625739,-0.11007 -0.448448,-0.079 -0.806701,-0.19768 -1.085204,-0.34727 -0.278503,-0.14959 -0.477145,-0.33026 -0.606166,-0.53381 -0.129021,-0.20356 -0.188619,-0.42989 -0.188619,-0.67077 l -0.0021,-0.4625 h -2.08549 l -0.0011,0.45579 c 0,1.88136 2.070921,3.76869 5.528348,3.66127 4.06754,-0.12638 5.49527,-1.75666 5.49527,-3.63802 0,-0.98041 -0.49256,-1.7712 -1.38903,-2.35792 -0.89647,-0.58671 -1.88602,-0.57905 -2.57122,-0.62448 -0.6852,-0.0454 -1.49535,-0.0572 -1.70348,-0.0572 -0.412867,0 -0.798162,-0.029 -1.145157,-0.0873 -0.346996,-0.0584 -0.656659,-0.14625 -0.917258,-0.26303 -0.260593,-0.11678 -0.471749,-0.26246 -0.618051,-0.4377 -0.146304,-0.17524 -0.227374,-0.37966 -0.227374,-0.6134 0,-0.23375 0.08108,-0.43867 0.227374,-0.61391 0.146302,-0.17525 0.357455,-0.32092 0.618051,-0.4377 0.260596,-0.11678 0.570259,-0.20467 0.917258,-0.26304 0.346998,-0.0583 0.732287,-0.0873 1.145157,-0.0873 0.41286,0 0.80601,0.0391 1.16375,0.11007 0.35774,0.0709 0.67977,0.17341 0.95033,0.30024 0.27056,0.12683 0.45131,0.27259 0.57361,0.43615 0.12229,0.16356 0.18655,0.34545 0.18655,0.53899 0,0.0582 -0.002,0.11629 -0.002,0.17466 l 2.04215,0.008 1e-4,-0.22893 c 0,-1.75664 -2.07381,-3.28611 -4.79092,-3.28611 z"
         style="opacity:1;fill:#ffffff;fill-opacity:1;stroke:none;stroke-width:0.13976802;stroke-linecap:round;stroke-miterlimit:4;stroke-dasharray:none" />
    </g>
  </g>
</svg>
